<svg width="401" height="401" viewBox="0 0 401 401" fill="none" xmlns="http://www.w3.org/2000/svg">
<rect x="0.842712" y="0.842712" width="400" height="400" rx="95" fill="#082032"/>
<path d="M136.825 318.923C130.665 318.923 125.737 317.28 122.041 313.995C118.345 310.709 116.497 306.192 116.497 300.443V145.827C116.497 131.453 120.604 120.263 128.817 112.255C137.236 104.247 148.837 100.243 163.621 100.243H215.673C246.884 100.243 270.6 106.711 286.821 119.647C303.042 132.583 311.153 151.576 311.153 176.627C311.153 201.677 303.248 220.671 287.437 233.607C271.626 246.543 248.321 253.011 217.521 253.011H157.461V300.443C157.461 305.987 155.51 310.504 151.609 313.995C147.913 317.28 142.985 318.923 136.825 318.923ZM217.213 221.287C252.325 221.287 269.881 206.4 269.881 176.627C269.881 146.853 252.325 131.967 217.213 131.967H170.705C166.598 131.967 163.313 133.301 160.849 135.971C158.59 138.64 157.461 142.336 157.461 147.059V221.287H217.213Z" fill="white"/>
</svg>
